<svg width="100" height="85" viewBox="0 0 100 85" fill="none" xmlns="http://www.w3.org/2000/svg">
<g clip-path="url(#clip0_1409_192)">
<path d="M79.4417 64.8811C80.4321 63.8913 80.4319 62.2891 79.4412 61.3025C78.4505 60.3159 76.8445 60.3185 75.8541 61.3083C74.8637 62.298 74.8639 63.9002 75.8546 64.8868C76.8453 65.8734 78.4513 65.8708 79.4417 64.8811Z" fill="#F0D6F6"/>
<path d="M71.4419 70.5323L71.4267 70.5205C71.2474 70.3844 71.0234 70.3204 70.7991 70.3413C70.5748 70.3622 70.3665 70.4664 70.2156 70.6333L70.1941 70.6569C66.6808 74.5176 62.5593 77.5436 57.9446 79.6506C53.1183 81.8542 47.911 82.9713 42.4688 82.9713C36.9796 82.9713 31.6557 81.8984 26.6449 79.783C21.8041 77.7394 17.4562 74.8131 13.7221 71.0858C9.98793 67.3585 7.05645 63.0183 5.00892 58.1852C2.88899 53.1846 1.81434 47.8695 1.81434 42.3913C1.81434 36.9131 2.88978 31.5977 5.00839 26.5961C7.05592 21.764 9.98741 17.4239 13.7215 13.6955C17.4557 9.96719 21.8036 7.04193 26.6444 4.99798C31.6543 2.88261 36.9791 1.80974 42.468 1.80974H48.8175C49.0583 1.80974 49.2891 1.71436 49.4594 1.54457C49.6296 1.37478 49.7253 1.14449 49.7254 0.904344C49.7253 0.66417 49.6296 0.433855 49.4594 0.264026C49.2892 0.0941978 49.0583 -0.00124289 48.8175 -0.00131226H42.468C19.0135 -0.00131226 0.00131151 18.978 0.00131151 42.39H0C0 65.802 19.0135 84.7813 42.468 84.7813C54.2089 84.7813 64.355 79.7783 71.5615 71.8449C71.6448 71.753 71.7081 71.645 71.7474 71.5275C71.7867 71.4101 71.8012 71.2858 71.79 71.1625C71.7787 71.0391 71.742 70.9195 71.6821 70.811C71.6222 70.7026 71.5404 70.6077 71.4419 70.5323Z" fill="#F0D6F6"/>
<path d="M99.8744 27.204C99.3702 27.8537 98.3415 28.925 97.6697 29.6087C97.2737 30.0146 96.8984 30.4402 96.5455 30.8839C91.444 37.2559 83.934 38.3997 78.3446 38.1825C74.9656 38.0517 71.6428 37.2962 68.5159 36.0106C59.7813 32.4215 53.805 32.7944 51.5725 33.1398C51.433 33.1612 51.3713 32.9723 51.4959 32.9061C56.5337 30.2318 56.8482 25.3539 56.8482 25.3539V23.9474C56.8482 21.1593 55.5146 18.5307 53.2439 16.9068C52.6503 16.4852 52.0263 16.1078 51.3771 15.7777C48.982 14.5504 46.3186 13.9363 43.6261 13.9363H27.8355V15.4278C28.0983 15.4279 28.3586 15.4796 28.6014 15.58C28.8443 15.6804 29.0649 15.8276 29.2507 16.013C29.4365 16.1985 29.5839 16.4187 29.6844 16.661C29.785 16.9033 29.8367 17.1629 29.8366 17.4252V34.4055C17.591 40.849 19.1522 54.0628 19.1522 54.0628C19.467 59.4737 26.6559 76.8682 44.2837 73.2464C56.044 70.8298 60.1036 61.9219 61.4993 56.4108C62.4872 52.5105 62.0675 48.3732 60.2403 44.7877C56.6265 37.701 49.526 36.4926 48.0511 36.3157C47.5971 35.952 47.7668 35.413 48.156 35.2926C55.0155 33.1673 65.7098 36.6054 70.6206 38.4539C72.7762 39.2676 75.0302 39.7932 77.324 40.0171V41.9446H76.0676V42.9793V54.1748V55.7398H77.0829L77.6508 60.5693L78.2478 55.7398H79.4945V41.9441H78.8451V40.1181C80.1158 40.1646 81.3883 40.1141 82.6514 39.9671C87.3633 39.4176 90.9839 37.7005 93.5786 35.9227C96.6145 33.844 98.8616 30.8085 99.983 27.3097L99.9963 27.2678C100.001 27.2522 100 27.2354 99.9941 27.2203C99.9879 27.2052 99.9765 27.1928 99.962 27.1852C99.9475 27.1777 99.9308 27.1754 99.9148 27.1788C99.8988 27.1822 99.8845 27.1911 99.8744 27.204ZM46.6795 69.6685C38.6581 73.3995 32.6249 71.4317 28.4784 68.2882C22.6086 63.8382 19.6989 56.4479 20.9947 49.2056C22.1351 42.832 25.9477 39.0827 29.8342 36.8833V63.1622C29.8343 63.3501 29.7972 63.5361 29.7252 63.7097C29.6531 63.8833 29.5475 64.041 29.4144 64.1739C29.2813 64.3068 29.1232 64.4122 28.9492 64.4841C28.7753 64.556 28.5888 64.5931 28.4005 64.5931V65.5851H35.2398V64.5939H34.306C34.1655 64.5939 34.0308 64.5382 33.9315 64.4391C33.8322 64.3401 33.7764 64.2057 33.7764 64.0655V48.6529L44.3427 38.4303C44.6938 38.0911 45.1293 37.8515 45.6042 37.7362C46.0791 37.621 46.5763 37.6342 47.0444 37.7746C60.2036 41.7047 63.1361 62.014 46.679 69.6685H46.6795ZM46.7684 34.1635L33.7774 44.9154V35.117C35.2584 34.6478 37.2634 34.2414 38.5469 34.0049C38.7085 33.9751 38.8623 33.9126 38.9987 33.8213C39.1352 33.7299 39.2514 33.6116 39.3402 33.4736C39.429 33.3357 39.4885 33.1811 39.5151 33.0193C39.5416 32.8575 39.5346 32.692 39.4946 32.533C39.419 32.2345 39.2314 31.9764 38.9706 31.812C38.7099 31.6475 38.3957 31.5892 38.0931 31.649C37.762 31.7143 37.4412 31.7813 37.1304 31.85C35.9972 32.0881 34.8779 32.3877 33.7774 32.7475V15.4273H43.5421C43.6093 15.4241 43.6761 15.4216 43.7425 15.4197C48.4968 15.281 52.4121 19.1268 52.4121 23.8747V25.8663C52.4127 26.994 52.0859 28.0977 51.4713 29.0441C49.8508 31.5381 46.7684 34.1635 46.7684 34.1635ZM78.8435 43.837H76.6709V44.6048H78.0818V45.2757H76.8723V46.4159H78.8435V47.0195H76.8052V47.8244H78.0818V48.4281H76.6709V49.3H78.0818V50.5074H76.8052V51.0441H77.4546V51.849H76.738V52.4527H78.0818V53.727H76.3456V43.0622H78.8435V43.837Z" fill="#F0D6F6"/>
</g>
<defs>
<clipPath id="clip0_1409_192">
<rect width="100" height="84.7826" fill="white"/>
</clipPath>
</defs>
</svg>
